<svg xmlns="http://www.w3.org/2000/svg" width="18" height="18" viewBox="0 0 18 18">
  <defs>
    <style>
      .cls-1 {
        fill: #ffffff;
        fill-rule: evenodd;
      }
    </style>
  </defs>
  <path id="Forma_1" data-name="Forma 1" class="cls-1" d="M1570.01,3945h-16.02a0.986,0.986,0,0,0-.99.99v16.02a0.992,0.992,0,0,0,.99.99h8.62v-6.97h-2.34v-2.72h2.34v-2a3.272,3.272,0,0,1,3.5-3.59,20.79,20.79,0,0,1,2.09.1v2.43h-1.44a1.129,1.129,0,0,0-1.34,1.33v1.73h2.69l-0.35,2.72h-2.34V3963h4.59a1,1,0,0,0,.99-0.99v-16.02A0.992,0.992,0,0,0,1570.01,3945Z" transform="translate(-1553 -3945)"/>
</svg>
