<svg xmlns="http://www.w3.org/2000/svg" width="18" height="18" viewBox="0 0 18 18">
  <defs>
    <style>
      .cls-1 {
        fill-rule: evenodd;
      }
    </style>
  </defs>
  <path id="Forma_1" data-name="Forma 1" class="cls-1" d="M1437.01,294h-16.02a0.989,0.989,0,0,0-.99.993v16.013a0.99,0.99,0,0,0,.99.994h8.62v-6.971h-2.34v-2.717h2.34v-2a3.275,3.275,0,0,1,3.5-3.591,19.568,19.568,0,0,1,2.09.106v2.431h-1.44a1.125,1.125,0,0,0-1.34,1.322v1.735h2.69l-0.35,2.716h-2.34V312h4.59a1,1,0,0,0,.99-0.993V294.992A1,1,0,0,0,1437.01,294Z" transform="translate(-1420 -294)"/>
</svg>
