<svg xmlns="http://www.w3.org/2000/svg" width="15" height="15" viewBox="0 0 15 15">
  <defs>
    <style>
      .cls-1 {
        fill: #00a528;
        fill-rule: evenodd;
      }
    </style>
  </defs>
  <path id="Фигура_8" data-name="Фигура 8" class="cls-1" d="M1531.62,86h2.5a1.877,1.877,0,0,0,1.88-1.875v-2.5a1.877,1.877,0,0,0-1.88-1.875h-2.5a1.885,1.885,0,0,0-1.87,1.832,5,5,0,0,1-4.33-4.337,1.875,1.875,0,0,0,1.83-1.871v-2.5A1.878,1.878,0,0,0,1525.37,71h-2.5a1.875,1.875,0,0,0-1.87,1.875v2.5A10.639,10.639,0,0,0,1531.62,86Zm0-5h2.5a0.627,0.627,0,0,1,.63.625H1531A0.624,0.624,0,0,1,1531.62,81ZM1526,72.874v2.5a0.626,0.626,0,0,1-.63.625V72.25A0.626,0.626,0,0,1,1526,72.874Zm-3.75.625V72.874a0.624,0.624,0,0,1,.62-0.625h1.25v5h0.04a6.251,6.251,0,0,0,5.59,5.593v0.032h5v1.25a0.627,0.627,0,0,1-.63.625h-2.5a9.388,9.388,0,0,1-9.37-9.375V73.5Z" transform="translate(-1521 -71)"/>
</svg>
