<svg xmlns="http://www.w3.org/2000/svg" width="18" height="18" viewBox="0 0 18 18">
  <defs>
    <style>
      .cls-1 {
        fill: #ffffff;
        fill-rule: evenodd;
      }
    </style>
  </defs>
  <path id="Forma_1" data-name="Forma 1" class="cls-1" d="M1601.85,3949.85a0.7,0.7,0,0,1-.7-0.7v-1.38a0.694,0.694,0,0,1,.7-0.69h1.38a0.691,0.691,0,0,1,.69.69v1.38a0.7,0.7,0,0,1-.69.7h-1.38Zm-4.85,1.51a2.667,2.667,0,0,0-1.37.39,1.334,1.334,0,0,1,1.73,1.27,1.335,1.335,0,1,1-2.67,0,1.32,1.32,0,0,1,.06-0.39,2.667,2.667,0,0,0-.39,1.37A2.64,2.64,0,1,0,1597,3951.36Zm0-1.51a4.15,4.15,0,1,1-4.15,4.15,4.153,4.153,0,0,1,4.15-4.15m0-1.39a5.54,5.54,0,1,0,5.54,5.54A5.552,5.552,0,0,0,1597,3948.46Zm5.62-3.46h-11.25a3.372,3.372,0,0,0-3.37,3.37v11.25a3.374,3.374,0,0,0,3.37,3.38h11.25a3.376,3.376,0,0,0,3.38-3.38v-11.25A3.374,3.374,0,0,0,1602.62,3945Zm2,6.23h-4.53a4.15,4.15,0,1,1-6.18,0h-4.53v-2.86a2,2,0,0,1,1.99-1.99h11.25a2,2,0,0,1,2,1.99v2.86Z" transform="translate(-1588 -3945)"/>
</svg>
