<?xml version="1.0" encoding="utf-8"?>
<!-- Generator: Adobe Illustrator 22.1.0, SVG Export Plug-In . SVG Version: 6.00 Build 0)  -->
<svg version="1.1" id="Layer_1" xmlns="http://www.w3.org/2000/svg" xmlns:xlink="http://www.w3.org/1999/xlink" x="0px" y="0px"
	 viewBox="0 0 260 40" style="enable-background:new 0 0 260 40;" xml:space="preserve">
<style type="text/css">
	.st0{fill:#00BC44;}
</style>
<g>
	<g>
		<g>
			<path class="st0" d="M212.9,31.7l0.9-1.5c1.5,1.1,3.2,1.7,5.1,1.7c2.9,0,4.8-1.6,4.8-4.7v-1.6c-1.2,1.5-2.8,2.8-5.2,2.8
				c-3.2,0-6.2-2.4-6.2-6.2v-0.1c0-3.9,3.1-6.3,6.2-6.3c2.5,0,4.1,1.2,5.2,2.7v-2.4h2v11c0,2.1-0.6,3.6-1.7,4.7
				c-1.2,1.2-3,1.8-5.1,1.8C216.7,33.5,214.7,32.9,212.9,31.7 M223.8,22.1L223.8,22.1c0-2.8-2.4-4.5-4.9-4.5c-2.5,0-4.6,1.7-4.6,4.5
				v0c0,2.7,2.1,4.5,4.6,4.5C221.4,26.6,223.8,24.8,223.8,22.1"/>
			<rect x="228.8" y="10.6" class="st0" width="2" height="18.8"/>
			<path class="st0" d="M235.8,26.8v2.5h-2V10.6h2v8.1c1.1-1.6,2.6-3,5.1-3c3.2,0,6.3,2.5,6.3,6.9v0c0,4.3-3.1,6.9-6.3,6.9
				C238.4,29.6,236.8,28.3,235.8,26.8 M245.2,22.8L245.2,22.8c0-3.2-2.2-5.2-4.7-5.2c-2.5,0-4.8,2.1-4.8,5.1v0
				c0,3.1,2.3,5.1,4.8,5.1C243.1,27.9,245.2,26,245.2,22.8"/>
			<path class="st0" d="M248.3,25.5L248.3,25.5c0-2.9,2.3-4.4,5.7-4.4c1.7,0,2.9,0.2,4.1,0.6v-0.4c0-2.4-1.4-3.6-3.9-3.6
				c-1.6,0-2.8,0.4-4,0.9l-0.6-1.6c1.5-0.7,2.9-1.1,4.8-1.1c1.9,0,3.3,0.5,4.3,1.5c0.9,0.9,1.4,2.2,1.4,3.9v8.1h-2v-2
				c-0.9,1.2-2.4,2.3-4.8,2.3C250.8,29.6,248.3,28.2,248.3,25.5 M258.1,24.5v-1.2c-1-0.3-2.3-0.6-3.9-0.6c-2.5,0-3.9,1.1-3.9,2.7
				v0.1c0,1.7,1.5,2.6,3.3,2.6C256.1,28.1,258.1,26.6,258.1,24.5"/>
			<path class="st0" d="M207,9.9c0.1-0.2,0.3-0.2,0.3,0c-0.1,4.9-1,9.4-3,13.6c-0.4-1.5-1-2.9-1.7-4.3C204.7,16.2,206.1,13,207,9.9"
				/>
			<path class="st0" d="M206.7,24.5c0.2,0.1,0.2,0.2,0,0.3c-0.6,0.4-1.2,0.7-1.9,1.1c-0.1-0.7-0.3-1.3-0.5-2
				C205.2,24.1,206,24.3,206.7,24.5"/>
			<path class="st0" d="M188.8,29.4c4.1-1.6,7.5-3.6,10.5-6c0,0,0,0,0,0.1c0.1,0.8,0.1,1.6,0.2,2.4c0,0.8,0,1.5,0,2.3
				c-3.2,1-6.8,1.5-10.6,1.5C188.6,29.7,188.6,29.5,188.8,29.4"/>
			<path class="st0" d="M202.2,19.9c0.6,1.3,1.1,2.6,1.5,4c0.1,0.2,0.1,0.4,0.2,0.6c0.2,0.6,0.3,1.2,0.4,1.8
				c-0.8,0.4-1.6,0.8-2.4,1.1c-0.3,0.1-0.5,0.2-0.8,0.3c-0.2,0.1-0.3,0.1-0.5,0.2c-0.1,0-0.2,0.1-0.4,0.1c0-0.6,0-1.2,0-1.7
				c0-1-0.1-1.9-0.2-2.9c0-0.2-0.1-0.4-0.1-0.6c-0.5-3.9-1.5-7.4-3-10.4C199.2,14.7,200.9,17.2,202.2,19.9"/>
		</g>
	</g>
	<rect x="181.9" y="10.9" class="st0" width="1.2" height="22.4"/>
	<g>
		<path class="st0" d="M118.5,14.5c0,0.7-0.3,1.4-0.9,1.7c0.6,0.4,0.9,1,0.9,1.7c0,1.3-0.9,2.3-2.7,2.3H112v-8.2h3.7
			C117.6,12.2,118.5,13.2,118.5,14.5z M113.6,15.6h2c0.8,0,1.3-0.3,1.3-1c0-0.7-0.5-1-1.3-1h-2V15.6z M113.6,18.9h2
			c0.8,0,1.3-0.3,1.3-0.9c0-0.7-0.5-1-1.3-1h-2V18.9z"/>
		<path class="st0" d="M124.8,17.1l2.4,3.2h-2l-2.4-3.1h-1.3v3.1H120v-8.2h4c1.9,0,2.8,1.2,2.8,2.5
			C126.9,15.9,126.2,16.9,124.8,17.1z M121.6,15.8h2.3c0.8,0,1.3-0.4,1.3-1.1c0-0.7-0.5-1.1-1.3-1.1h-2.3V15.8z"/>
		<path class="st0" d="M136.2,20.3h-1.7l-0.8-1.8H130l-0.8,1.8h-1.6l3.6-8.2h1.6L136.2,20.3z M130.7,17.1h2.4l-1.2-2.8L130.7,17.1z"
			/>
		<path class="st0" d="M144.6,12.2v8.2h-1.7l-4.1-5.7v5.7h-1.6v-8.2h1.7l4.1,5.7v-5.7H144.6z"/>
		<path class="st0" d="M149.3,12.2c2.8,0,4.4,1.8,4.4,4.1c0,2.2-1.6,4.1-4.4,4.1h-2.8v-8.2H149.3z M152.1,16.3
			c0-1.5-1.1-2.6-2.9-2.6h-1.2v5.3h1.2C151,18.9,152.1,17.8,152.1,16.3z"/>
		<path class="st0" d="M156.8,20.3h-1.6v-8.2h1.6V20.3z"/>
		<path class="st0" d="M166.1,12.2v8.2h-1.7l-4.1-5.7v5.7h-1.6v-8.2h1.7l4.1,5.7v-5.7H166.1z"/>
		<path class="st0" d="M167.5,16.3c0-2.4,1.8-4.2,4.2-4.2c1.8,0,3.1,1,3.7,2.4h-1.7c-0.4-0.6-1.1-1-2-1c-1.5,0-2.6,1.2-2.6,2.8
			c0,1.6,1.1,2.8,2.6,2.8c1.2,0,1.9-0.7,2.2-1.7h-2.7v-1.4h4.4c0,2.8-1.7,4.6-3.9,4.6C169.4,20.5,167.5,18.7,167.5,16.3z"/>
		<path class="st0" d="M119.7,32.2H118l-0.8-1.8h-3.7l-0.8,1.8H111l3.6-8.2h1.6L119.7,32.2z M114.1,29h2.4l-1.2-2.8L114.1,29z"/>
		<path class="st0" d="M120.1,28.2c0-2.4,1.8-4.2,4.2-4.2c1.8,0,3.1,1,3.7,2.4h-1.7c-0.4-0.6-1.1-1-2-1c-1.5,0-2.6,1.2-2.6,2.8
			c0,1.6,1.1,2.8,2.6,2.8c1.2,0,1.9-0.7,2.2-1.7h-2.7v-1.4h4.4c0,2.8-1.7,4.6-3.9,4.6C121.9,32.4,120.1,30.6,120.1,28.2z"/>
		<path class="st0" d="M131.3,25.5v1.9h4v1.4h-4v1.9h4.1v1.4h-5.7v-8.2h5.7v1.4H131.3z"/>
		<path class="st0" d="M144.5,24.1v8.2h-1.7l-4.1-5.7v5.7h-1.6v-8.2h1.7l4.1,5.7v-5.7H144.5z"/>
		<path class="st0" d="M153.9,26.3h-1.7c-0.4-0.6-1.2-1-2-1c-1.5,0-2.6,1.2-2.6,2.8c0,1.6,1.1,2.8,2.6,2.8c0.8,0,1.5-0.4,2-1h1.7
			c-0.7,1.5-1.9,2.4-3.7,2.4c-2.4,0-4.2-1.8-4.2-4.2s1.8-4.2,4.2-4.2C151.9,23.9,153.2,24.9,153.9,26.3z"/>
		<path class="st0" d="M160.5,24.1h1.7l-3.2,5.3v2.9h-1.6v-2.9l-3.2-5.3h1.8l2.2,3.7L160.5,24.1z"/>
	</g>
	<g>
		<path class="st0" d="M79.2,11.6c-5.8,0-10.6,4.8-10.6,10.6c0,5.8,4.8,10.6,10.6,10.6c5.8,0,10.6-4.8,10.6-10.6
			C89.8,16.4,85,11.6,79.2,11.6z M79.2,28.6c-3.5,0-5.5-2.9-5.5-6.4c0-3.5,2-6.4,5.5-6.4c3.5,0,5.5,2.9,5.5,6.4
			C84.7,25.7,82.7,28.6,79.2,28.6z"/>
		<path class="st0" d="M57.1,11.6c-2.8,0-4.8,1.1-6.1,2.9v-2.4h-5.1v26.7H51v-8.9c1.3,1.8,3.3,2.9,6.1,2.9c5.8,0,10-4.8,10-10.6
			S62.9,11.6,57.1,11.6z M56.5,28.6c-3.5,0-5.5-2.9-5.5-6.4c0-3.5,2-6.4,5.5-6.4c3.5,0,5.5,2.9,5.5,6.4C62,25.7,59.9,28.6,56.5,28.6
			z"/>
		<path class="st0" d="M99.7,27.9c-0.9,0-1.5-0.7-1.5-1.5V15.9h3.8v-3.8h-3.8V5.6h-5.1v6.5h-3.4v3.8h3.4v11.6c0,2.6,2.1,4.8,4.8,4.8
			h4.5v-4.3H99.7z"/>
		<path class="st0" d="M16.1,14.5c-1.3-1.8-3.3-2.9-6.1-2.9c-5.8,0-10,4.8-10,10.6s4.1,10.6,10,10.6c2.8,0,4.8-1.1,6.1-2.9v2.3h5.1
			V5.6h-5.1V14.5z M10.6,28.6c-3.5,0-5.5-2.9-5.5-6.4c0-3.5,2-6.4,5.5-6.4s5.5,2.9,5.5,6.4C16.1,25.7,14.1,28.6,10.6,28.6z"/>
		<path class="st0" d="M33.7,11.6c-5.8,0-10.6,4.8-10.6,10.6c0,5.8,4.8,10.6,10.6,10.6c3.2,0,6.2-1.4,8.2-3.9l0,0l0,0
			c0.7-0.9,1.3-1.8,1.7-2.9h-5.3c-0.9,1.6-2.5,2.6-4.6,2.6c-2.9,0-4.8-2-5.4-4.8c0,0,15.3,0,15.6,0c0-0.2,0-0.5,0-0.7
			C43.9,15.8,39.7,11.6,33.7,11.6z M38.6,20.3h-9.8h-0.4c0.6-2.6,2.5-4.5,5.3-4.5h0c2.8,0,4.7,1.9,5.3,4.5H38.6z"/>
	</g>
</g>
</svg>
