<?xml version="1.0" encoding="UTF-8"?> <svg xmlns="http://www.w3.org/2000/svg" xmlns:xlink="http://www.w3.org/1999/xlink" id="Layer_1" data-name="Layer 1" width="553.39" height="93.74" viewBox="0 0 553.39 93.74"> <defs> <style>.cls-1{fill:#443e37;}.cls-2{fill:url(#linear-gradient);}.cls-3{fill:url(#linear-gradient-2);}</style> <linearGradient id="linear-gradient" x1="72.09" y1="10.08" x2="311.67" y2="10.08" gradientTransform="matrix(1, 0, 0, -1, 0, 93.97)" gradientUnits="userSpaceOnUse"> <stop offset="0" stop-color="#8fc7a5"></stop> <stop offset="1" stop-color="#70c5c6"></stop> </linearGradient> <linearGradient id="linear-gradient-2" x1="0" y1="63.06" x2="180.45" y2="63.06" xlink:href="#linear-gradient"></linearGradient> </defs> <title>ED_Awards_Logo_dark</title> <path class="cls-1" d="M202.37,1h18.26l19.84,58.94H225.79l-5.58-17.26H200.29l-6.42,17.25H179.7Zm14.51,31.43L211,9.76,204,32.43h12.84Z" transform="translate(0 0)"></path> <path class="cls-1" d="M237.46,1h13.75l9.17,49.93,13.67-35.6L269.05,1h14.09l15.43,49.43L310.07,1h13.51L307.4,59.94H289.57L279.39,29.76l-11,30.18H250.14Z" transform="translate(0 0)"></path> <path class="cls-1" d="M343.25,1H361.5l19.84,58.94H366.67l-5.58-17.26H341.16l-6.42,17.25H320.57Zm14.5,31.43L351.83,9.76l-6.92,22.67h12.84Z" transform="translate(0 0)"></path> <path class="cls-1" d="M415.93,47.27l-6.67-7.75c-1,.08-2.09.08-3.17,0.08h-4.34V59.94H387.51V1h22.92c13.25,0,22.75,6.09,22.75,19.26a17.72,17.72,0,0,1-9.5,15.92l6,6.5c3.25,3.5,6.92,5.83,13.34,7.5L439.86,61C428.35,60.44,422.1,54.44,415.93,47.27ZM406.6,29.68c8.41,0,12-3.5,12-9.09,0-5.92-2.42-8.42-10-8.42h-6.84v17.5h4.84Z" transform="translate(0 0)"></path> <path class="cls-1" d="M448.94,1H470c20.42,0,34.42,8.75,34.42,29.26s-12.67,29.68-33.92,29.68H448.94V1h0Zm22.51,47.85c13.59,0,18.84-6.17,18.84-17.76,0-12.67-6.34-19-20.51-19H463V48.85h8.42Z" transform="translate(0 0)"></path> <path class="cls-1" d="M509.12,56.69l4-10.17a41.61,41.61,0,0,0,15.59,2.67c7.09,0,10.34-2.17,10.34-5.75,0-9.58-28-7-28-27C511,5.09,521.79.17,532.22,0.17a39.43,39.43,0,0,1,18.42,4L546.55,14c-4.33-1.25-7.92-2.42-13.92-2.42s-7.75,2.25-7.75,4.75c0,7.84,28.51,7.84,28.51,26.59,0,12.92-12.34,17.92-24.51,17.92C519.21,60.86,513.54,59.11,509.12,56.69Z" transform="translate(0 0)"></path> <path class="cls-2" d="M75.83,90.2h8.49v3.23H72.09V74.31H83.73v3.21H75.84v4.74h7.33V85.4H75.84v4.8Zm23.62-4.65c0,3.28-1.42,4.88-4.34,4.88s-4.29-1.4-4.29-4.29V74.31H87v12c0,4.71,3,7.42,8.11,7.42,1.89,0,8-.58,8-8.08V74.31H99.45V85.55Zm23.76,5.05,0.49,0.13-0.87,3-0.39,0a7.73,7.73,0,0,1-5.84-3.38l-2.8-3.89a11.6,11.6,0,0,1-1.26.06h-1.63v6.92h-3.77V74.31h6.73c4.26,0,6.71,2.18,6.71,6a5.54,5.54,0,0,1-3,5.13l2.2,2.95A5.91,5.91,0,0,0,123.21,90.6Zm-12.29-7.22h1.78c3.6,0,4-1.69,4-3,0-2.12-.92-2.91-3.4-2.91h-2.4v5.87ZM143,83.88c0,6.08-3.83,9.85-10,9.85-5.87,0-9.52-3.8-9.52-9.91,0-5.94,3.93-9.78,10-9.78C139.39,74.05,143,77.82,143,83.88Zm-3.79,0c0-4.06-2.27-6.58-5.93-6.58s-6,2.44-6,6.52c0,3.23,1.53,6.68,5.83,6.68C137,90.48,139.23,88.07,139.23,83.86Zm13.48-9.55H146V93.43h3.77V77.51h2.4c2.35,0,3.4,1,3.4,3.29s-1.35,3.27-4,3.27h-1.63V87.3h1.47c4.88,0,8-2.59,8-6.6S156.85,74.31,152.71,74.31Zm12.56,11.1h7.33V82.26h-7.33V77.51h7.9V74.31H161.52V93.43h12.23V90.2h-8.49V85.4h0ZM186,74.31l6.76,19.13h-4L186.6,87.1h-6.17L178,93.43h-3.84l7.52-19.12H186ZM185.55,84l-1.85-5.77L181.59,84h4Zm21,3.86v0.12l-7.73-13.64h-4.41V93.43h3.74V80.07l7.54,13.36h4.64V74.31h-3.79V87.83Zm30.26-4c0,6.3-3.65,9.63-10.55,9.63h-6V74.31h5.83C232.82,74.31,236.82,77.86,236.82,83.8Zm-3.74.28c0-5.41-3.83-6.55-7-6.55h-2V90.2h2.55C230.88,90.2,233.08,88.14,233.08,84.08Zm10.47,1.32h7.33V82.26h-7.33V77.51h7.9V74.31H239.8V93.43H252V90.2h-8.49V85.4h0ZM261,81.91c-1.81-.85-3.37-1.58-3.37-2.84,0-1.43,1.43-1.73,2.63-1.73A10.53,10.53,0,0,1,264,78l0.45,0.15,1.11-2.89-0.44-.19a11.18,11.18,0,0,0-5-1c-3.08,0-6.19,1.57-6.19,5.06s3,4.94,5.33,6c1.86,0.83,3.47,1.56,3.47,3.07,0,2-2.47,2.17-3.53,2.17a10,10,0,0,1-4.24-.89l-0.47-.19-1.2,3,0.39,0.21a10.91,10.91,0,0,0,5.57,1.21c4.45,0,7.21-2.18,7.21-5.68S263.46,83.06,261,81.91Zm8.46,11.52h3.74V74.31h-3.74V93.43Zm19.1-3.24a11,11,0,0,1-1.91.18c-4.16,0-6.65-2.49-6.65-6.65,0-5.7,4.35-6.32,6.22-6.32a11.82,11.82,0,0,1,3.93.59l0.9,0.26,1.08-3L291.58,75a12.54,12.54,0,0,0-5.39-1c-6.36,0-10,3.62-10,9.93,0,6,3.84,9.73,10,9.73a17,17,0,0,0,5.79-.9l0.34-.11V83.51h-3.77V90.2h0Zm19.32-15.89V87.94l-7.73-13.64h-4.41V93.43h3.74V80.07L307,93.43h4.64V74.31h-3.79Z" transform="translate(0 0)"></path> <path class="cls-3" d="M88.68,48.15h26.59V60.32H73.41V0h39.93V12.16H88.68V24.33H111.5V35.74H88.68V48.15Zm91.77-18.2c0,19.87-12,30.37-34.65,30.37H123.57V0H145.3C168,0,180.45,10.64,180.45,29.95Zm-41.69,18.2h8c12.76,0,18.45-5.35,18.45-17.36,0-12.71-6.4-18.62-20.13-18.62h-6.29v36ZM59.94,14L40.62,20.37V0H24.39V20.35L5.09,13.42,0,28.52,19.6,35.3l-12.39,16L20.08,61l12-16.17,12.41,17,13.16-9.68L45.39,35.32l19.31-6.19Z" transform="translate(0 0)"></path> </svg> 