<?xml version="1.0" encoding="utf-8"?>
<!-- Generator: Adobe Illustrator 23.0.1, SVG Export Plug-In . SVG Version: 6.00 Build 0)  -->
<svg version="1.1" id="Layer_1" xmlns="http://www.w3.org/2000/svg" xmlns:xlink="http://www.w3.org/1999/xlink" x="0px" y="0px"
	 viewBox="0 0 16 42" style="enable-background:new 0 0 16 42;" xml:space="preserve">
<style type="text/css">
	.st0{fill:#00BC44;}
	.st1{fill:none;}
</style>
<g>
	<polygon class="st0" points="4.52,5.46 6.37,0.03 12.39,2.29 	"/>
</g>
<g>
	<polygon class="st0" points="5.8,9.79 8.77,4.69 14.1,8.04 	"/>
</g>
<g>
	<polygon class="st0" points="6.5,14.5 8.38,12.22 10.13,9.77 12.58,11.66 14.95,13.74 	"/>
</g>
<g>
	<polygon class="st0" points="6.7,19.38 10.78,14.99 15.19,19.38 	"/>
</g>
<g>
	<polygon class="st0" points="6.5,24.27 10.93,20.26 14.95,25 	"/>
</g>
<g>
	<polygon class="st0" points="5.83,29.02 10.63,25.51 14.15,30.67 	"/>
</g>
<g>
	<polygon class="st0" points="4.62,33.49 9.81,30.71 12.6,36.35 	"/>
</g>
<g>
	<polygon class="st0" points="2.81,37.27 8.31,35.75 9.84,42.03 	"/>
</g>
<rect x="0" y="0.03" transform="matrix(-1 4.501987e-11 -4.501987e-11 -1 16 42.0297)" class="st1" width="16" height="41.97"/>
</svg>
