<svg xmlns="http://www.w3.org/2000/svg" width="19" height="14" viewBox="0 0 19 14">
  <defs>
    <style>
      .cls-1 {
        fill-rule: evenodd;
      }
    </style>
  </defs>
  <path id="Фигура_14" data-name="Фигура 14" class="cls-1" d="M607.644,276.234l-0.014-.013,0,0a2.368,2.368,0,0,0-1-.225h-14.25a2.4,2.4,0,0,0-.915.181l-0.025-.024-0.074.075a2.328,2.328,0,0,0-1.361,2.1v9.334A2.357,2.357,0,0,0,592.375,290h14.25A2.357,2.357,0,0,0,609,287.667v-9.334A2.327,2.327,0,0,0,607.644,276.234Zm-4.37,6.33,4.143-3.966v7.929Zm2.962-5.009-6.068,5.811a0.892,0.892,0,0,1-1.208,0l-6.066-5.81h13.342Zm-14.653,9.1v-8.187l4.227,4.049Zm0.792,1.785a0.818,0.818,0,0,1-.309-0.061l4.878-4.776,0.909,0.871a2.5,2.5,0,0,0,3.421,0l0.867-.829,4.884,4.672a0.775,0.775,0,0,1-.4.122h-14.25Z" transform="translate(-590 -276)"/>
</svg>
