<svg xmlns="http://www.w3.org/2000/svg" width="13" height="17.85" viewBox="0 0 13 17.85">
  <defs>
    <style>
      .cls-1 {
        fill: #000;
        fill-rule: evenodd;
      }
    </style>
  </defs>
  <path id="Фигура_11" data-name="Фигура 11" class="cls-1" d="M976.5,3724.08a6.569,6.569,0,0,0-6.5,6.62c0,3.41,5.281,9.77,5.883,10.49l0.617,0.73,0.616-.73c0.6-.72,5.883-7.08,5.883-10.49A6.568,6.568,0,0,0,976.5,3724.08Zm0,15.27c-1.773-2.22-4.874-6.55-4.874-8.65a4.874,4.874,0,1,1,9.747,0C981.373,3732.8,978.273,3737.13,976.5,3739.35Zm-0.015-11.99a3.316,3.316,0,1,0,3.252,3.32A3.291,3.291,0,0,0,976.485,3727.36Zm0,4.97a1.655,1.655,0,1,1,1.626-1.65A1.64,1.64,0,0,1,976.485,3732.33Z" transform="translate(-970 -3724.06)"/>
</svg>
