<svg xmlns="http://www.w3.org/2000/svg" width="18" height="18" viewBox="0 0 18 18">
  <defs>
    <style>
      .cls-1 {
        fill: #ffffff;
        fill-rule: evenodd;
      }
    </style>
  </defs>
  <path id="Forma_1" data-name="Forma 1" class="cls-1" d="M1636.62,3945h-11.25a3.372,3.372,0,0,0-3.37,3.37v11.25a3.374,3.374,0,0,0,3.37,3.38h11.25a3.376,3.376,0,0,0,3.38-3.38v-11.25A3.374,3.374,0,0,0,1636.62,3945Zm-1.14,6.98v0.29a6.3,6.3,0,0,1-9.7,5.3,4.725,4.725,0,0,0,.53.04,4.446,4.446,0,0,0,2.75-.95,2.23,2.23,0,0,1-2.07-1.54,2.984,2.984,0,0,0,.42.04,2.331,2.331,0,0,0,.59-0.08,2.21,2.21,0,0,1-1.78-2.17v-0.03a2.143,2.143,0,0,0,1,.28,2.233,2.233,0,0,1-.98-1.85,2.125,2.125,0,0,1,.3-1.11,6.307,6.307,0,0,0,4.56,2.32,2.225,2.225,0,0,1,3.78-2.03,4.369,4.369,0,0,0,1.41-.53,2.2,2.2,0,0,1-.98,1.22,4.121,4.121,0,0,0,1.27-.35A4.3,4.3,0,0,1,1635.48,3951.98Z" transform="translate(-1622 -3945)"/>
</svg>
