<svg xmlns="http://www.w3.org/2000/svg" width="18" height="18" viewBox="0 0 18 18">
  <defs>
    <style>
      .cls-1 {
        fill: #ffffff;
        fill-rule: evenodd;
      }
    </style>
  </defs>
  <path id="Forma_1" data-name="Forma 1" class="cls-1" d="M1708.04,3945h-16.08a0.96,0.96,0,0,0-.96.96v16.08a0.96,0.96,0,0,0,.96.96h16.08a0.96,0.96,0,0,0,.96-0.96v-16.08A0.96,0.96,0,0,0,1708.04,3945Zm-2.7,10.14a19.973,19.973,0,0,1,1.45,1.46,4.279,4.279,0,0,1,.52.74,0.546,0.546,0,0,1-.33.84h-2.16a1.684,1.684,0,0,1-1.37-.56c-0.3-.3-0.58-0.63-0.86-0.94a2.169,2.169,0,0,0-.39-0.35,0.453,0.453,0,0,0-.72.18,2.324,2.324,0,0,0-.23,1,0.571,0.571,0,0,1-.68.67,5.543,5.543,0,0,1-3.09-.67,6.615,6.615,0,0,1-2.07-1.94,25.306,25.306,0,0,1-2.73-4.87c-0.18-.38-0.05-0.59.37-0.6,0.71-.01,1.41-0.01,2.11,0a0.631,0.631,0,0,1,.59.44,12.545,12.545,0,0,0,1.43,2.65,2.2,2.2,0,0,0,.54.6,0.332,0.332,0,0,0,.56-0.17,2.082,2.082,0,0,0,.12-0.55,8.481,8.481,0,0,0-.03-1.95,0.82,0.82,0,0,0-.7-0.75c-0.2-.03-0.17-0.11-0.07-0.23a0.783,0.783,0,0,1,.66-0.33h2.44a0.586,0.586,0,0,1,.52.64v2.7a0.806,0.806,0,0,0,.34.69,0.486,0.486,0,0,0,.49-0.23,8.59,8.59,0,0,0,1.37-2.11c0.17-.34.31-0.68,0.45-1.03a0.534,0.534,0,0,1,.55-0.38l2.34,0.01a1.477,1.477,0,0,1,.21.01,0.4,0.4,0,0,1,.38.62,5.688,5.688,0,0,1-.93,1.62c-0.39.54-.81,1.06-1.2,1.61A0.735,0.735,0,0,0,1705.34,3955.14Z" transform="translate(-1691 -3945)"/>
</svg>
