<svg xmlns="http://www.w3.org/2000/svg" width="18" height="18" viewBox="0 0 18 18">
  <defs>
    <style>
      .cls-1 {
        fill: #ffffff;
        fill-rule: evenodd;
      }
    </style>
  </defs>
  <path id="Forma_1" data-name="Forma 1" class="cls-1" d="M1664.87,3956.25l3.38-2.25-3.38-2.25v4.5Zm6.75-11.25h-11.25a3.372,3.372,0,0,0-3.37,3.37v11.25a3.374,3.374,0,0,0,3.37,3.38h11.25a3.376,3.376,0,0,0,3.38-3.38v-11.25A3.374,3.374,0,0,0,1671.62,3945Zm-0.09,11.01a2.081,2.081,0,0,1-1.43,1.85,60.641,60.641,0,0,1-8.2,0,2.009,2.009,0,0,1-1.43-1.85,20.974,20.974,0,0,1,0-4.04,1.987,1.987,0,0,1,1.43-1.82,57.542,57.542,0,0,1,8.2,0,1.708,1.708,0,0,1,1.43,1.73A21.917,21.917,0,0,1,1671.53,3956.01Z" transform="translate(-1657 -3945)"/>
</svg>
