<?xml version="1.0" encoding="UTF-8"?> <svg xmlns="http://www.w3.org/2000/svg" viewBox="376 441 1169.3 198.7"> <g transform="translate(376 441)"> <path d="M185.8,45V153.7l-54.6,45H0V0H131.2Zm-77.7,0H48.7V153.7h59.4l28.4-23.4V68.7Z"></path> <path d="M224.1,0h48.7V198.7H224.1V0Z"></path> <path d="M365.7,45V76.8h70.9v43.9H365.7v32.9H467.9v45H317V0H467.9V45Z"></path> <path d="M650.5,153.7v45h-145V0h48.7V153.7Z"></path> <path d="M685.7,0h48.7V198.7H685.7Z"></path> <path d="M974.5,0V198.7H887L834.9,43.6h-8.4V198.7H778.6V0h87.5l52.1,155.1h8.4V0Z"></path> <path d="M1067.1,45V76.8H1138v43.9h-70.9v32.9h102.2v45H1018.4V0h150.9V45Z"></path> </g> </svg> 