<?xml version="1.0" standalone="no"?>
<!DOCTYPE svg PUBLIC "-//W3C//DTD SVG 20010904//EN"
 "http://www.w3.org/TR/2001/REC-SVG-20010904/DTD/svg10.dtd">
<svg version="1.0" xmlns="http://www.w3.org/2000/svg"
 width="100" height="100" viewBox="0 0 259.000000 194.000000"
 preserveAspectRatio="xMidYMid meet" style="transform:rotate(140deg)">

<g transform="translate(0.000000,194.000000) scale(0.100000,-0.100000) "
fill="#ea5b21" stroke="none">
<path d="M971 1268 c22 -62 42 -115 45 -117 3 -3 -30 -40 -73 -83 l-78 -78
218 -218 217 -217 215 215 215 215 -76 76 -75 75 41 114 c22 62 40 117 40 122
0 4 -49 -17 -110 -47 l-110 -55 -140 0 -140 0 -110 55 c-60 30 -112 55 -114
55 -3 0 13 -51 35 -112z m101 11 l61 -31 -41 -41 c-23 -23 -44 -38 -48 -35
-14 14 -53 138 -44 138 6 0 38 -14 72 -31z m510 -39 c-13 -38 -28 -70 -31 -70
-4 0 -24 18 -45 39 l-39 39 59 31 c33 16 64 30 70 31 7 0 1 -27 -14 -70z
m-370 -294 l76 -67 102 86 c56 48 103 85 105 83 4 -4 -186 -403 -197 -414 -6
-5 -208 396 -208 414 0 3 10 -3 23 -14 12 -11 56 -50 99 -88z"/>
</g>
</svg>
